<?xml version="1.0" encoding="UTF-8" standalone="no"?><svg xmlns="http://www.w3.org/2000/svg" xmlns:xlink="http://www.w3.org/1999/xlink" contentScriptType="application/ecmascript" contentStyleType="text/css" height="133px" preserveAspectRatio="none" style="width:302px;height:133px;background:#FFFFFF;" version="1.1" viewBox="0 0 302 133" width="302px" zoomAndPan="magnify"><defs><filter height="300%" id="fbwzfv50puyle" width="300%" x="-1" y="-1"><feGaussianBlur result="blurOut" stdDeviation="2.0"/><feColorMatrix in="blurOut" result="blurOut2" type="matrix" values="0 0 0 0 0 0 0 0 0 0 0 0 0 0 0 0 0 0 .4 0"/><feOffset dx="4.0" dy="4.0" in="blurOut2" result="blurOut3"/><feBlend in="SourceGraphic" in2="blurOut3" mode="normal"/></filter></defs><g><!--MD5=[a16208eafd77a9f912ce61d17496cf74]
class Array2D--><rect codeLine="1" fill="#FEFECE" filter="url(#fbwzfv50puyle)" height="112.0234" id="Array2D" style="stroke:#A80036;stroke-width:1.5;" width="281" x="7" y="7"/><ellipse cx="118.75" cy="23" fill="#ADD1B2" rx="11" ry="11" style="stroke:#A80036;stroke-width:1.0;"/><path d="M121.7188,28.6406 Q121.1406,28.9375 120.5,29.0781 Q119.8594,29.2344 119.1563,29.2344 Q116.6563,29.2344 115.3281,27.5938 Q114.0156,25.9375 114.0156,22.8125 Q114.0156,19.6875 115.3281,18.0313 Q116.6563,16.375 119.1563,16.375 Q119.8594,16.375 120.5,16.5313 Q121.1563,16.6875 121.7188,16.9844 L121.7188,19.7031 Q121.0938,19.125 120.5,18.8594 Q119.9063,18.5781 119.2813,18.5781 Q117.9375,18.5781 117.25,19.6563 Q116.5625,20.7188 116.5625,22.8125 Q116.5625,24.9063 117.25,25.9844 Q117.9375,27.0469 119.2813,27.0469 Q119.9063,27.0469 120.5,26.7813 Q121.0938,26.5 121.7188,25.9219 L121.7188,28.6406 Z " fill="#000000"/><text fill="#000000" font-family="sans-serif" font-size="12" lengthAdjust="spacing" textLength="49" x="139.25" y="27.1543">Array2D</text><line style="stroke:#A80036;stroke-width:1.5;" x1="8" x2="287" y1="39" y2="39"/><text fill="#000000" font-family="sans-serif" font-size="11" lengthAdjust="spacing" textLength="79" x="13" y="53.2104">Number width</text><text fill="#000000" font-family="sans-serif" font-size="11" lengthAdjust="spacing" textLength="84" x="13" y="66.0151">Number height</text><line style="stroke:#A80036;stroke-width:1.5;" x1="8" x2="287" y1="72.6094" y2="72.6094"/><text fill="#000000" font-family="sans-serif" font-size="11" lengthAdjust="spacing" textLength="269" x="13" y="86.8198">allSubarrays(aPointTopLeft, aPointBottomRight)</text><text fill="#000000" font-family="sans-serif" font-size="11" lengthAdjust="spacing" textLength="248" x="13" y="99.6245">subArray(aPointTopLeft, aPointBottomRight)</text><text fill="#000000" font-family="sans-serif" font-size="11" lengthAdjust="spacing" textLength="66" x="13" y="112.4292">transpose()</text><!--MD5=[5c1ffe74ba2edf66d67f7c3e4ae6cd48]
@startuml Array2D
    class Array2D {
        Number width
        Number height
        allSubarrays(aPointTopLeft, aPointBottomRight)
        subArray(aPointTopLeft, aPointBottomRight)
        transpose()
    }
@enduml

PlantUML version 1.2022.0(Tue Jan 11 21:46:42 IST 2022)
(GPL source distribution)
Java Runtime: OpenJDK Runtime Environment
JVM: OpenJDK 64-Bit Server VM
Default Encoding: UTF-8
Language: en
Country: US
--></g></svg>