<?xml version="1.0" encoding="UTF-8" standalone="no"?><svg xmlns="http://www.w3.org/2000/svg" xmlns:xlink="http://www.w3.org/1999/xlink" contentScriptType="application/ecmascript" contentStyleType="text/css" height="215px" preserveAspectRatio="none" style="width:1217px;height:215px;background:#FFFFFF;" version="1.1" viewBox="0 0 1217 215" width="1217px" zoomAndPan="magnify"><defs><filter height="300%" id="f1n5l0g24zfl4a" width="300%" x="-1" y="-1"><feGaussianBlur result="blurOut" stdDeviation="2.0"/><feColorMatrix in="blurOut" result="blurOut2" type="matrix" values="0 0 0 0 0 0 0 0 0 0 0 0 0 0 0 0 0 0 .4 0"/><feOffset dx="4.0" dy="4.0" in="blurOut2" result="blurOut3"/><feBlend in="SourceGraphic" in2="blurOut3" mode="normal"/></filter></defs><g><!--MD5=[02f7077ed79257124e28b791f351f1d7]
class Direction--><rect codeLine="1" fill="#FEFECE" filter="url(#f1n5l0g24zfl4a)" height="73.6094" id="Direction" style="stroke:#A80036;stroke-width:1.5;" width="130" x="496" y="7"/><ellipse cx="529.9" cy="23" fill="#A9DCDF" rx="11" ry="11" style="stroke:#A80036;stroke-width:1.0;"/><path d="M530.0094,18.3438 L528.8531,23.4219 L531.1813,23.4219 L530.0094,18.3438 Z M528.525,16.1094 L531.5094,16.1094 L534.8688,28.5 L532.4156,28.5 L531.65,25.4375 L528.3688,25.4375 L527.6188,28.5 L525.1813,28.5 L528.525,16.1094 Z " fill="#000000"/><text fill="#000000" font-family="sans-serif" font-size="12" font-style="italic" lengthAdjust="spacing" textLength="56" x="548.1" y="27.1543">Direction</text><line style="stroke:#A80036;stroke-width:1.5;" x1="497" x2="625" y1="39" y2="39"/><line style="stroke:#A80036;stroke-width:1.5;" x1="497" x2="625" y1="47" y2="47"/><text fill="#000000" font-family="sans-serif" font-size="11" lengthAdjust="spacing" textLength="115" x="502" y="61.2104">opposite(): Direction</text><text fill="#000000" font-family="sans-serif" font-size="11" lengthAdjust="spacing" textLength="118" x="502" y="74.0151">ofPoint(aPoint): Point</text><!--MD5=[a20b350fc56352a5b859eb5d06067574]
class Top--><rect codeLine="14" fill="#FEFECE" filter="url(#f1n5l0g24zfl4a)" height="60.8047" id="Top" style="stroke:#A80036;stroke-width:1.5;" width="118" x="7" y="141"/><ellipse cx="50.35" cy="157" fill="#ADD1B2" rx="11" ry="11" style="stroke:#A80036;stroke-width:1.0;"/><path d="M53.3188,162.6406 Q52.7406,162.9375 52.1,163.0781 Q51.4594,163.2344 50.7563,163.2344 Q48.2563,163.2344 46.9281,161.5938 Q45.6156,159.9375 45.6156,156.8125 Q45.6156,153.6875 46.9281,152.0313 Q48.2563,150.375 50.7563,150.375 Q51.4594,150.375 52.1,150.5313 Q52.7563,150.6875 53.3188,150.9844 L53.3188,153.7031 Q52.6938,153.125 52.1,152.8594 Q51.5063,152.5781 50.8813,152.5781 Q49.5375,152.5781 48.85,153.6563 Q48.1625,154.7188 48.1625,156.8125 Q48.1625,158.9063 48.85,159.9844 Q49.5375,161.0469 50.8813,161.0469 Q51.5063,161.0469 52.1,160.7813 Q52.6938,160.5 53.3188,159.9219 L53.3188,162.6406 Z " fill="#000000"/><text fill="#000000" font-family="sans-serif" font-size="12" lengthAdjust="spacing" textLength="23" x="70.65" y="161.1543">Top</text><line style="stroke:#A80036;stroke-width:1.5;" x1="8" x2="124" y1="173" y2="173"/><line style="stroke:#A80036;stroke-width:1.5;" x1="8" x2="124" y1="181" y2="181"/><text fill="#000000" font-family="sans-serif" font-size="11" lengthAdjust="spacing" textLength="106" x="13" y="195.2104">opposite(): Bottom</text><!--MD5=[eab4c3e00336c089e0e39f4232e82faa]
class Bottom--><rect codeLine="17" fill="#FEFECE" filter="url(#f1n5l0g24zfl4a)" height="60.8047" id="Bottom" style="stroke:#A80036;stroke-width:1.5;" width="98" x="160" y="141"/><ellipse cx="184.45" cy="157" fill="#ADD1B2" rx="11" ry="11" style="stroke:#A80036;stroke-width:1.0;"/><path d="M187.4188,162.6406 Q186.8406,162.9375 186.2,163.0781 Q185.5594,163.2344 184.8563,163.2344 Q182.3563,163.2344 181.0281,161.5938 Q179.7156,159.9375 179.7156,156.8125 Q179.7156,153.6875 181.0281,152.0313 Q182.3563,150.375 184.8563,150.375 Q185.5594,150.375 186.2,150.5313 Q186.8563,150.6875 187.4188,150.9844 L187.4188,153.7031 Q186.7938,153.125 186.2,152.8594 Q185.6063,152.5781 184.9813,152.5781 Q183.6375,152.5781 182.95,153.6563 Q182.2625,154.7188 182.2625,156.8125 Q182.2625,158.9063 182.95,159.9844 Q183.6375,161.0469 184.9813,161.0469 Q185.6063,161.0469 186.2,160.7813 Q186.7938,160.5 187.4188,159.9219 L187.4188,162.6406 Z " fill="#000000"/><text fill="#000000" font-family="sans-serif" font-size="12" lengthAdjust="spacing" textLength="45" x="200.55" y="161.1543">Bottom</text><line style="stroke:#A80036;stroke-width:1.5;" x1="161" x2="257" y1="173" y2="173"/><line style="stroke:#A80036;stroke-width:1.5;" x1="161" x2="257" y1="181" y2="181"/><text fill="#000000" font-family="sans-serif" font-size="11" lengthAdjust="spacing" textLength="86" x="166" y="195.2104">opposite(): Top</text><!--MD5=[b74c65644b3f2fbf332c6559ceeaa525]
class Left--><rect codeLine="20" fill="#FEFECE" filter="url(#f1n5l0g24zfl4a)" height="60.8047" id="Left" style="stroke:#A80036;stroke-width:1.5;" width="105" x="293.5" y="141"/><ellipse cx="331" cy="157" fill="#ADD1B2" rx="11" ry="11" style="stroke:#A80036;stroke-width:1.0;"/><path d="M333.9688,162.6406 Q333.3906,162.9375 332.75,163.0781 Q332.1094,163.2344 331.4063,163.2344 Q328.9063,163.2344 327.5781,161.5938 Q326.2656,159.9375 326.2656,156.8125 Q326.2656,153.6875 327.5781,152.0313 Q328.9063,150.375 331.4063,150.375 Q332.1094,150.375 332.75,150.5313 Q333.4063,150.6875 333.9688,150.9844 L333.9688,153.7031 Q333.3438,153.125 332.75,152.8594 Q332.1563,152.5781 331.5313,152.5781 Q330.1875,152.5781 329.5,153.6563 Q328.8125,154.7188 328.8125,156.8125 Q328.8125,158.9063 329.5,159.9844 Q330.1875,161.0469 331.5313,161.0469 Q332.1563,161.0469 332.75,160.7813 Q333.3438,160.5 333.9688,159.9219 L333.9688,162.6406 Z " fill="#000000"/><text fill="#000000" font-family="sans-serif" font-size="12" lengthAdjust="spacing" textLength="23" x="350" y="161.1543">Left</text><line style="stroke:#A80036;stroke-width:1.5;" x1="294.5" x2="397.5" y1="173" y2="173"/><line style="stroke:#A80036;stroke-width:1.5;" x1="294.5" x2="397.5" y1="181" y2="181"/><text fill="#000000" font-family="sans-serif" font-size="11" lengthAdjust="spacing" textLength="93" x="299.5" y="195.2104">opposite(): Right</text><!--MD5=[49fd7558d44f044db7d275260ced17f3]
class Right--><rect codeLine="23" fill="#FEFECE" filter="url(#f1n5l0g24zfl4a)" height="60.8047" id="Right" style="stroke:#A80036;stroke-width:1.5;" width="98" x="434" y="141"/><ellipse cx="464.3" cy="157" fill="#ADD1B2" rx="11" ry="11" style="stroke:#A80036;stroke-width:1.0;"/><path d="M467.2688,162.6406 Q466.6906,162.9375 466.05,163.0781 Q465.4094,163.2344 464.7063,163.2344 Q462.2063,163.2344 460.8781,161.5938 Q459.5656,159.9375 459.5656,156.8125 Q459.5656,153.6875 460.8781,152.0313 Q462.2063,150.375 464.7063,150.375 Q465.4094,150.375 466.05,150.5313 Q466.7063,150.6875 467.2688,150.9844 L467.2688,153.7031 Q466.6438,153.125 466.05,152.8594 Q465.4563,152.5781 464.8313,152.5781 Q463.4875,152.5781 462.8,153.6563 Q462.1125,154.7188 462.1125,156.8125 Q462.1125,158.9063 462.8,159.9844 Q463.4875,161.0469 464.8313,161.0469 Q465.4563,161.0469 466.05,160.7813 Q466.6438,160.5 467.2688,159.9219 L467.2688,162.6406 Z " fill="#000000"/><text fill="#000000" font-family="sans-serif" font-size="12" lengthAdjust="spacing" textLength="32" x="481.7" y="161.1543">Right</text><line style="stroke:#A80036;stroke-width:1.5;" x1="435" x2="531" y1="173" y2="173"/><line style="stroke:#A80036;stroke-width:1.5;" x1="435" x2="531" y1="181" y2="181"/><text fill="#000000" font-family="sans-serif" font-size="11" lengthAdjust="spacing" textLength="86" x="440" y="195.2104">opposite(): Left</text><!--MD5=[3f31ba92becf5d6acf28815c4a281209]
class TopLeft--><rect codeLine="26" fill="#FEFECE" filter="url(#f1n5l0g24zfl4a)" height="60.8047" id="TopLeft" style="stroke:#A80036;stroke-width:1.5;" width="146" x="567" y="141"/><ellipse cx="612.75" cy="157" fill="#ADD1B2" rx="11" ry="11" style="stroke:#A80036;stroke-width:1.0;"/><path d="M615.7188,162.6406 Q615.1406,162.9375 614.5,163.0781 Q613.8594,163.2344 613.1563,163.2344 Q610.6563,163.2344 609.3281,161.5938 Q608.0156,159.9375 608.0156,156.8125 Q608.0156,153.6875 609.3281,152.0313 Q610.6563,150.375 613.1563,150.375 Q613.8594,150.375 614.5,150.5313 Q615.1563,150.6875 615.7188,150.9844 L615.7188,153.7031 Q615.0938,153.125 614.5,152.8594 Q613.9063,152.5781 613.2813,152.5781 Q611.9375,152.5781 611.25,153.6563 Q610.5625,154.7188 610.5625,156.8125 Q610.5625,158.9063 611.25,159.9844 Q611.9375,161.0469 613.2813,161.0469 Q613.9063,161.0469 614.5,160.7813 Q615.0938,160.5 615.7188,159.9219 L615.7188,162.6406 Z " fill="#000000"/><text fill="#000000" font-family="sans-serif" font-size="12" lengthAdjust="spacing" textLength="46" x="633.25" y="161.1543">TopLeft</text><line style="stroke:#A80036;stroke-width:1.5;" x1="568" x2="712" y1="173" y2="173"/><line style="stroke:#A80036;stroke-width:1.5;" x1="568" x2="712" y1="181" y2="181"/><text fill="#000000" font-family="sans-serif" font-size="11" lengthAdjust="spacing" textLength="134" x="573" y="195.2104">opposite(): BottomRight</text><!--MD5=[1c713768ac00628b42ee6ac4dc211e63]
class TopRight--><rect codeLine="29" fill="#FEFECE" filter="url(#f1n5l0g24zfl4a)" height="60.8047" id="TopRight" style="stroke:#A80036;stroke-width:1.5;" width="139" x="748.5" y="141"/><ellipse cx="786.9" cy="157" fill="#ADD1B2" rx="11" ry="11" style="stroke:#A80036;stroke-width:1.0;"/><path d="M789.8688,162.6406 Q789.2906,162.9375 788.65,163.0781 Q788.0094,163.2344 787.3063,163.2344 Q784.8063,163.2344 783.4781,161.5938 Q782.1656,159.9375 782.1656,156.8125 Q782.1656,153.6875 783.4781,152.0313 Q784.8063,150.375 787.3063,150.375 Q788.0094,150.375 788.65,150.5313 Q789.3063,150.6875 789.8688,150.9844 L789.8688,153.7031 Q789.2438,153.125 788.65,152.8594 Q788.0563,152.5781 787.4313,152.5781 Q786.0875,152.5781 785.4,153.6563 Q784.7125,154.7188 784.7125,156.8125 Q784.7125,158.9063 785.4,159.9844 Q786.0875,161.0469 787.4313,161.0469 Q788.0563,161.0469 788.65,160.7813 Q789.2438,160.5 789.8688,159.9219 L789.8688,162.6406 Z " fill="#000000"/><text fill="#000000" font-family="sans-serif" font-size="12" lengthAdjust="spacing" textLength="55" x="806.1" y="161.1543">TopRight</text><line style="stroke:#A80036;stroke-width:1.5;" x1="749.5" x2="886.5" y1="173" y2="173"/><line style="stroke:#A80036;stroke-width:1.5;" x1="749.5" x2="886.5" y1="181" y2="181"/><text fill="#000000" font-family="sans-serif" font-size="11" lengthAdjust="spacing" textLength="127" x="754.5" y="195.2104">opposite(): BottomLeft</text><!--MD5=[4a44dc444fbc8c3f5e3671b747a808c6]
class BottomLeft--><rect codeLine="32" fill="#FEFECE" filter="url(#f1n5l0g24zfl4a)" height="60.8047" id="BottomLeft" style="stroke:#A80036;stroke-width:1.5;" width="126" x="923" y="141"/><ellipse cx="949.7" cy="157" fill="#ADD1B2" rx="11" ry="11" style="stroke:#A80036;stroke-width:1.0;"/><path d="M952.6688,162.6406 Q952.0906,162.9375 951.45,163.0781 Q950.8094,163.2344 950.1063,163.2344 Q947.6063,163.2344 946.2781,161.5938 Q944.9656,159.9375 944.9656,156.8125 Q944.9656,153.6875 946.2781,152.0313 Q947.6063,150.375 950.1063,150.375 Q950.8094,150.375 951.45,150.5313 Q952.1063,150.6875 952.6688,150.9844 L952.6688,153.7031 Q952.0438,153.125 951.45,152.8594 Q950.8563,152.5781 950.2313,152.5781 Q948.8875,152.5781 948.2,153.6563 Q947.5125,154.7188 947.5125,156.8125 Q947.5125,158.9063 948.2,159.9844 Q948.8875,161.0469 950.2313,161.0469 Q950.8563,161.0469 951.45,160.7813 Q952.0438,160.5 952.6688,159.9219 L952.6688,162.6406 Z " fill="#000000"/><text fill="#000000" font-family="sans-serif" font-size="12" lengthAdjust="spacing" textLength="68" x="966.3" y="161.1543">BottomLeft</text><line style="stroke:#A80036;stroke-width:1.5;" x1="924" x2="1048" y1="173" y2="173"/><line style="stroke:#A80036;stroke-width:1.5;" x1="924" x2="1048" y1="181" y2="181"/><text fill="#000000" font-family="sans-serif" font-size="11" lengthAdjust="spacing" textLength="114" x="929" y="195.2104">opposite(): TopRight</text><!--MD5=[0d05f80e3a0c95c474de4439b6b16207]
class BottomRight--><rect codeLine="35" fill="#FEFECE" filter="url(#f1n5l0g24zfl4a)" height="60.8047" id="BottomRight" style="stroke:#A80036;stroke-width:1.5;" width="119" x="1084.5" y="141"/><ellipse cx="1104" cy="157" fill="#ADD1B2" rx="11" ry="11" style="stroke:#A80036;stroke-width:1.0;"/><path d="M1106.9688,162.6406 Q1106.3906,162.9375 1105.75,163.0781 Q1105.1094,163.2344 1104.4063,163.2344 Q1101.9063,163.2344 1100.5781,161.5938 Q1099.2656,159.9375 1099.2656,156.8125 Q1099.2656,153.6875 1100.5781,152.0313 Q1101.9063,150.375 1104.4063,150.375 Q1105.1094,150.375 1105.75,150.5313 Q1106.4063,150.6875 1106.9688,150.9844 L1106.9688,153.7031 Q1106.3438,153.125 1105.75,152.8594 Q1105.1563,152.5781 1104.5313,152.5781 Q1103.1875,152.5781 1102.5,153.6563 Q1101.8125,154.7188 1101.8125,156.8125 Q1101.8125,158.9063 1102.5,159.9844 Q1103.1875,161.0469 1104.5313,161.0469 Q1105.1563,161.0469 1105.75,160.7813 Q1106.3438,160.5 1106.9688,159.9219 L1106.9688,162.6406 Z " fill="#000000"/><text fill="#000000" font-family="sans-serif" font-size="12" lengthAdjust="spacing" textLength="77" x="1119" y="161.1543">BottomRight</text><line style="stroke:#A80036;stroke-width:1.5;" x1="1085.5" x2="1202.5" y1="173" y2="173"/><line style="stroke:#A80036;stroke-width:1.5;" x1="1085.5" x2="1202.5" y1="181" y2="181"/><text fill="#000000" font-family="sans-serif" font-size="11" lengthAdjust="spacing" textLength="107" x="1090.5" y="195.2104">opposite(): TopLeft</text><!--MD5=[35d7f61b16dd7efb1e80c55ea04a33b8]
reverse link Direction to Top--><path codeLine="5" d="M476.2,60.67 C390.88,77.31 255.98,106.02 142,141 C136.45,142.7 130.73,144.62 125.04,146.63 " fill="none" id="Direction-backto-Top" style="stroke:#A80036;stroke-width:1.0;"/><polygon fill="none" points="475.03,53.77,495.99,56.85,477.68,67.52,475.03,53.77" style="stroke:#A80036;stroke-width:1.0;"/><!--MD5=[70db238b1f9851d8febfda5b0c1953cf]
reverse link Direction to Bottom--><path codeLine="6" d="M476.57,71.24 C419.47,89.52 342.63,115.17 276,141 C270.19,143.25 264.15,145.72 258.19,148.24 " fill="none" id="Direction-backto-Bottom" style="stroke:#A80036;stroke-width:1.0;"/><polygon fill="none" points="474.71,64.49,495.89,65.09,478.95,77.83,474.71,64.49" style="stroke:#A80036;stroke-width:1.0;"/><!--MD5=[52eaf44f79de84e53f081437aa069928]
reverse link Direction to Left--><path codeLine="7" d="M481.82,91.22 C453.34,107.85 422,126.14 396.61,140.96 " fill="none" id="Direction-backto-Left" style="stroke:#A80036;stroke-width:1.0;"/><polygon fill="none" points="478.3,85.17,499.1,81.13,485.36,97.26,478.3,85.17" style="stroke:#A80036;stroke-width:1.0;"/><!--MD5=[64b47bec467eaf5dee8e43868107fb6a]
reverse link Direction to Right--><path codeLine="8" d="M527.82,98.38 C518.84,112.84 509.43,127.97 501.57,140.62 " fill="none" id="Direction-backto-Right" style="stroke:#A80036;stroke-width:1.0;"/><polygon fill="none" points="521.94,94.59,538.44,81.3,533.83,101.98,521.94,94.59" style="stroke:#A80036;stroke-width:1.0;"/><!--MD5=[b8b5376bbc647b73fb37f613189f5533]
reverse link Direction to TopLeft--><path codeLine="9" d="M594.6,98.38 C603.7,112.84 613.23,127.97 621.19,140.62 " fill="none" id="Direction-backto-TopLeft" style="stroke:#A80036;stroke-width:1.0;"/><polygon fill="none" points="588.58,101.95,583.85,81.3,600.43,94.5,588.58,101.95" style="stroke:#A80036;stroke-width:1.0;"/><!--MD5=[dc8b89614bdf91324287433bd41274b1]
reverse link Direction to TopRight--><path codeLine="10" d="M644.28,85.67 C681.09,103.64 723.56,124.38 757.3,140.86 " fill="none" id="Direction-backto-TopRight" style="stroke:#A80036;stroke-width:1.0;"/><polygon fill="none" points="641.08,91.9,626.18,76.83,647.23,79.32,641.08,91.9" style="stroke:#A80036;stroke-width:1.0;"/><!--MD5=[264aaeee1c413d509c1f6be684f1ab53]
reverse link Direction to BottomLeft--><path codeLine="11" d="M645.86,66.73 C715.82,85.11 817.42,112.88 905,141 C910.84,142.88 916.89,144.91 922.93,147 " fill="none" id="Direction-backto-BottomLeft" style="stroke:#A80036;stroke-width:1.0;"/><polygon fill="none" points="643.69,73.4,626.11,61.57,647.23,59.85,643.69,73.4" style="stroke:#A80036;stroke-width:1.0;"/><!--MD5=[bb2ef9a957fa4a6ac41dcf337bb6b4d8]
reverse link Direction to BottomRight--><path codeLine="12" d="M646.05,56.4 C747.47,71.07 921.55,99.7 1067,141 C1072.65,142.6 1078.46,144.45 1084.24,146.42 " fill="none" id="Direction-backto-BottomRight" style="stroke:#A80036;stroke-width:1.0;"/><polygon fill="none" points="644.97,63.31,626.16,53.56,646.95,49.45,644.97,63.31" style="stroke:#A80036;stroke-width:1.0;"/><!--MD5=[ec263019b6f742304ba70a5e002b63ff]
@startuml Direction
abstract class Direction {
    opposite(): Direction
    ofPoint(aPoint): Point
}
Direction <|- - Top
Direction <|- - Bottom
Direction <|- - Left
Direction <|- - Right
Direction <|- - TopLeft
Direction <|- - TopRight
Direction <|- - BottomLeft
Direction <|- - BottomRight

class Top{
    opposite(): Bottom
}
class Bottom{
    opposite(): Top
}
class Left{
    opposite(): Right
}
class Right{
    opposite(): Left
}
class TopLeft{
    opposite(): BottomRight
}
class TopRight{
    opposite(): BottomLeft
}
class BottomLeft{
    opposite(): TopRight
}
class BottomRight{
    opposite(): TopLeft
}
@enduml

PlantUML version 1.2022.0(Tue Jan 11 21:46:42 IST 2022)
(GPL source distribution)
Java Runtime: OpenJDK Runtime Environment
JVM: OpenJDK 64-Bit Server VM
Default Encoding: UTF-8
Language: en
Country: US
--></g></svg>