<?xml version="1.0" encoding="UTF-8" standalone="no"?><svg xmlns="http://www.w3.org/2000/svg" xmlns:xlink="http://www.w3.org/1999/xlink" contentScriptType="application/ecmascript" contentStyleType="text/css" height="299px" preserveAspectRatio="none" style="width:195px;height:299px;background:#FFFFFF;" version="1.1" viewBox="0 0 195 299" width="195px" zoomAndPan="magnify"><defs><filter height="300%" id="fma4453i3hm7v" width="300%" x="-1" y="-1"><feGaussianBlur result="blurOut" stdDeviation="2.0"/><feColorMatrix in="blurOut" result="blurOut2" type="matrix" values="0 0 0 0 0 0 0 0 0 0 0 0 0 0 0 0 0 0 .4 0"/><feOffset dx="4.0" dy="4.0" in="blurOut2" result="blurOut3"/><feBlend in="SourceGraphic" in2="blurOut3" mode="normal"/></filter></defs><g><!--MD5=[db94511ff73c25040c57072aa4771965]
class Path--><rect codeLine="2" fill="#FEFECE" filter="url(#fma4453i3hm7v)" height="278.4844" id="Path" style="stroke:#A80036;stroke-width:1.5;" width="174" x="7" y="7"/><ellipse cx="75.25" cy="23" fill="#ADD1B2" rx="11" ry="11" style="stroke:#A80036;stroke-width:1.0;"/><path d="M78.2188,28.6406 Q77.6406,28.9375 77,29.0781 Q76.3594,29.2344 75.6563,29.2344 Q73.1563,29.2344 71.8281,27.5938 Q70.5156,25.9375 70.5156,22.8125 Q70.5156,19.6875 71.8281,18.0313 Q73.1563,16.375 75.6563,16.375 Q76.3594,16.375 77,16.5313 Q77.6563,16.6875 78.2188,16.9844 L78.2188,19.7031 Q77.5938,19.125 77,18.8594 Q76.4063,18.5781 75.7813,18.5781 Q74.4375,18.5781 73.75,19.6563 Q73.0625,20.7188 73.0625,22.8125 Q73.0625,24.9063 73.75,25.9844 Q74.4375,27.0469 75.7813,27.0469 Q76.4063,27.0469 77,26.7813 Q77.5938,26.5 78.2188,25.9219 L78.2188,28.6406 Z " fill="#000000"/><text fill="#000000" font-family="sans-serif" font-size="12" lengthAdjust="spacing" textLength="29" x="95.75" y="27.1543">Path</text><line style="stroke:#A80036;stroke-width:1.5;" x1="8" x2="180" y1="39" y2="39"/><text fill="#000000" font-family="sans-serif" font-size="11" lengthAdjust="spacing" textLength="63" x="13" y="53.2104">String path</text><line style="stroke:#A80036;stroke-width:1.5;" x1="8" x2="180" y1="59.8047" y2="59.8047"/><text fill="#000000" font-family="sans-serif" font-size="11" lengthAdjust="spacing" textLength="131" x="13" y="74.0151">constructor(stringPath)</text><text fill="#000000" font-family="sans-serif" font-size="11" lengthAdjust="spacing" textLength="162" x="13" y="86.8198">static fromString(stringPath)</text><text fill="#000000" font-family="sans-serif" font-size="11" lengthAdjust="spacing" textLength="0" x="17" y="99.6245"/><text fill="#000000" font-family="sans-serif" font-size="11" lengthAdjust="spacing" textLength="67" x="13" y="112.4292">isAbsolute()</text><text fill="#000000" font-family="sans-serif" font-size="11" lengthAdjust="spacing" textLength="62" x="13" y="125.2339">isRelative()</text><text fill="#000000" font-family="sans-serif" font-size="11" lengthAdjust="spacing" textLength="69" x="13" y="138.0386">isDirectory()</text><text fill="#000000" font-family="sans-serif" font-size="11" lengthAdjust="spacing" textLength="37" x="13" y="150.8433">isFile()</text><text fill="#000000" font-family="sans-serif" font-size="11" lengthAdjust="spacing" textLength="0" x="17" y="163.6479"/><text fill="#000000" font-family="sans-serif" font-size="11" lengthAdjust="spacing" textLength="58" x="13" y="176.4526">directory()</text><text fill="#000000" font-family="sans-serif" font-size="11" lengthAdjust="spacing" textLength="25" x="13" y="189.2573">file()</text><text fill="#000000" font-family="sans-serif" font-size="11" lengthAdjust="spacing" textLength="63" x="13" y="202.062">extension()</text><text fill="#000000" font-family="sans-serif" font-size="11" lengthAdjust="spacing" textLength="0" x="17" y="214.8667"/><text fill="#000000" font-family="sans-serif" font-size="11" lengthAdjust="spacing" textLength="108" x="13" y="227.6714">join(aPathOrString)</text><text fill="#000000" font-family="sans-serif" font-size="11" lengthAdjust="spacing" textLength="41" x="13" y="240.4761">parse()</text><text fill="#000000" font-family="sans-serif" font-size="11" lengthAdjust="spacing" textLength="64" x="13" y="253.2808">relativeTo()</text><text fill="#000000" font-family="sans-serif" font-size="11" lengthAdjust="spacing" textLength="0" x="17" y="266.0854"/><text fill="#000000" font-family="sans-serif" font-size="11" lengthAdjust="spacing" textLength="56" x="13" y="278.8901">asString()</text><!--MD5=[c48788d152d79fe44c14ba291311b52a]
@startuml Path

class Path{
    String path
    
    constructor(stringPath)
    static fromString(stringPath)
    
    isAbsolute()
    isRelative()
    isDirectory()
    isFile()

    directory()
    file()
    extension()

    join(aPathOrString)
    parse()
    relativeTo()
    
    asString()
}
@enduml

PlantUML version 1.2022.0(Tue Jan 11 21:46:42 IST 2022)
(GPL source distribution)
Java Runtime: OpenJDK Runtime Environment
JVM: OpenJDK 64-Bit Server VM
Default Encoding: UTF-8
Language: en
Country: US
--></g></svg>